<svg width="16" height="16" viewBox="0 0 16 16" fill="none" xmlns="http://www.w3.org/2000/svg">
<path d="M7.99918 4.14746C6.97721 4.14746 5.9971 4.55344 5.27446 5.27608C4.55182 5.99872 4.14584 6.97883 4.14584 8.00079C4.14584 9.02276 4.55182 10.0029 5.27446 10.7255C5.9971 11.4482 6.97721 11.8541 7.99918 11.8541C9.02114 11.8541 10.0013 11.4482 10.7239 10.7255C11.4465 10.0029 11.8525 9.02276 11.8525 8.00079C11.8525 6.97883 11.4465 5.99872 10.7239 5.27608C10.0013 4.55344 9.02114 4.14746 7.99918 4.14746ZM7.99918 10.5033C7.33525 10.5033 6.69852 10.2396 6.22905 9.77008C5.75959 9.30062 5.49584 8.66389 5.49584 7.99996C5.49584 7.33604 5.75959 6.6993 6.22905 6.22984C6.69852 5.76037 7.33525 5.49663 7.99918 5.49663C8.6631 5.49663 9.29984 5.76037 9.7693 6.22984C10.2388 6.6993 10.5025 7.33604 10.5025 7.99996C10.5025 8.66389 10.2388 9.30062 9.7693 9.77008C9.29984 10.2396 8.6631 10.5033 7.99918 10.5033Z" fill="white"/>
<path d="M12.005 4.90421C12.5011 4.90421 12.9033 4.50201 12.9033 4.00588C12.9033 3.50974 12.5011 3.10754 12.005 3.10754C11.5089 3.10754 11.1067 3.50974 11.1067 4.00588C11.1067 4.50201 11.5089 4.90421 12.005 4.90421Z" fill="white"/>
<path d="M15.1108 3.09248C14.9179 2.5943 14.6231 2.14189 14.2453 1.7642C13.8675 1.38651 13.4149 1.09188 12.9167 0.89915C12.3336 0.680281 11.7177 0.561935 11.095 0.54915C10.2925 0.51415 10.0383 0.50415 8.00335 0.50415C5.96835 0.50415 5.70751 0.50415 4.91168 0.54915C4.2895 0.561281 3.67398 0.679652 3.09168 0.89915C2.59329 1.09165 2.14065 1.38621 1.76279 1.76392C1.38493 2.14164 1.0902 2.59417 0.897512 3.09248C0.678599 3.67549 0.560524 4.29151 0.548345 4.91415C0.512512 5.71582 0.501678 5.96998 0.501678 8.00582C0.501678 10.0408 0.501678 10.3 0.548345 11.0975C0.560845 11.7208 0.678345 12.3358 0.897512 12.92C1.09074 13.4181 1.38576 13.8705 1.76371 14.2481C2.14166 14.6258 2.59423 14.9205 3.09251 15.1133C3.67371 15.341 4.28949 15.4678 4.91334 15.4883C5.71585 15.5233 5.97001 15.5342 8.00501 15.5342C10.04 15.5342 10.3008 15.5342 11.0967 15.4883C11.7193 15.4757 12.3352 15.3576 12.9183 15.1392C13.4165 14.946 13.8689 14.6511 14.2467 14.2733C14.6244 13.8955 14.9193 13.4431 15.1125 12.945C15.3317 12.3617 15.4492 11.7467 15.4617 11.1233C15.4975 10.3217 15.5083 10.0675 15.5083 8.03165C15.5083 5.99582 15.5083 5.73748 15.4617 4.93998C15.452 4.30854 15.3333 3.68352 15.1108 3.09248ZM14.0958 11.0358C14.0905 11.5161 14.0028 11.9918 13.8367 12.4425C13.7115 12.7665 13.5199 13.0608 13.2742 13.3064C13.0285 13.5519 12.7341 13.7434 12.41 13.8683C11.9644 14.0337 11.4936 14.1214 11.0183 14.1275C10.2267 14.1642 10.0033 14.1733 7.97335 14.1733C5.94168 14.1733 5.73418 14.1733 4.92751 14.1275C4.45245 14.1217 3.98195 14.034 3.53668 13.8683C3.21142 13.7441 2.91585 13.5531 2.66909 13.3075C2.42233 13.0618 2.22987 12.7672 2.10418 12.4425C1.94038 11.9967 1.85277 11.5265 1.84501 11.0517C1.80918 10.26 1.80085 10.0367 1.80085 8.00665C1.80085 5.97582 1.80085 5.76832 1.84501 4.96082C1.8504 4.48084 1.93806 4.00533 2.10418 3.55498C2.35835 2.89748 2.87918 2.37998 3.53668 2.12832C3.98217 1.96343 4.45253 1.87579 4.92751 1.86915C5.72001 1.83332 5.94251 1.82332 7.97335 1.82332C10.0042 1.82332 10.2125 1.82332 11.0183 1.86915C11.4937 1.87487 11.9645 1.96254 12.41 2.12832C12.7341 2.25354 13.0285 2.44515 13.2742 2.69084C13.5198 2.93653 13.7115 3.23088 13.8367 3.55498C14.0005 4.00078 14.0881 4.47095 14.0958 4.94582C14.1317 5.73832 14.1408 5.96082 14.1408 7.99165C14.1408 10.0217 14.1408 10.24 14.105 11.0367H14.0958V11.0358Z" fill="white"/>
</svg>
