<svg width="16" height="16" viewBox="0 0 16 16" fill="none" xmlns="http://www.w3.org/2000/svg">
<path d="M2.1525 3.9975C3.1595 3.9975 3.97583 3.18116 3.97583 2.17416C3.97583 1.16716 3.1595 0.35083 2.1525 0.35083C1.1455 0.35083 0.329163 1.16716 0.329163 2.17416C0.329163 3.18116 1.1455 3.9975 2.1525 3.9975Z" fill="white"/>
<path d="M5.6975 5.37915V15.495H8.83833V10.4925C8.83833 9.17248 9.08666 7.89415 10.7233 7.89415C12.3375 7.89415 12.3575 9.40332 12.3575 10.5758V15.4958H15.5V9.94832C15.5 7.22332 14.9133 5.12915 11.7283 5.12915C10.1992 5.12915 9.17416 5.96832 8.755 6.76248H8.71249V5.37915H5.6975ZM0.579163 5.37915H3.725V15.495H0.579163V5.37915Z" fill="white"/>
</svg>
