<svg width="18" height="12" viewBox="0 0 18 12" fill="none" xmlns="http://www.w3.org/2000/svg">
<path d="M16.9942 2.00247C16.8992 1.6503 16.7138 1.32914 16.4561 1.07094C16.1985 0.812741 15.8778 0.626516 15.5258 0.530799C14.2208 0.172465 9 0.166632 9 0.166632C9 0.166632 3.78 0.160799 2.47417 0.503299C2.12244 0.603421 1.80235 0.79228 1.54464 1.05174C1.28692 1.31121 1.10024 1.63257 1.0025 1.98497C0.658333 3.28997 0.655 5.99663 0.655 5.99663C0.655 5.99663 0.651667 8.71663 0.993333 10.0083C1.185 10.7225 1.7475 11.2866 2.4625 11.4791C3.78083 11.8375 8.9875 11.8433 8.9875 11.8433C8.9875 11.8433 14.2083 11.8491 15.5133 11.5075C15.8654 11.4119 16.1865 11.2261 16.4447 10.9684C16.703 10.7108 16.8895 10.3902 16.9858 10.0383C17.3308 8.73413 17.3333 6.0283 17.3333 6.0283C17.3333 6.0283 17.35 3.30747 16.9942 2.00247ZM7.33 8.50413L7.33417 3.50413L11.6733 6.0083L7.33 8.50413Z" fill="white"/>
</svg>
