<svg width="66" height="66" viewBox="0 0 66 66" fill="none" xmlns="http://www.w3.org/2000/svg">
<path d="M19.6611 27.283V38.7144" stroke="#F67ACB" stroke-width="1.5" stroke-linecap="round" stroke-linejoin="round"/>
<path fill-rule="evenodd" clip-rule="evenodd" d="M33 57.01V57.01C19.7396 57.01 8.98999 46.2603 8.98999 33V33C8.98999 19.7396 19.7396 8.98999 33 8.98999V8.98999C46.2603 8.98999 57.01 19.7396 57.01 33V33C57.01 46.2603 46.2603 57.01 33 57.01V57.01Z" stroke="#F67ACB" stroke-width="1.5" stroke-linecap="round" stroke-linejoin="round"/>
<path d="M33.3014 27.283H30.1268C28.7237 27.2844 27.5871 28.4223 27.5871 29.8254V36.1747C27.5871 37.5773 28.7241 38.7144 30.1268 38.7144H33.3014" stroke="#F67ACB" stroke-width="1.5" stroke-linecap="round" stroke-linejoin="round"/>
<path fill-rule="evenodd" clip-rule="evenodd" d="M44.7169 39.0025H42.7161C41.2427 39.0025 40.0483 37.8081 40.0483 36.3347V29.6653C40.0483 28.1919 41.2427 26.9975 42.7161 26.9975H44.7169C46.1903 26.9975 47.3847 28.1919 47.3847 29.6653V36.3347C47.3847 37.8081 46.1903 39.0025 44.7169 39.0025Z" stroke="#F67ACB" stroke-width="1.5" stroke-linecap="round" stroke-linejoin="round"/>
</svg>
