<svg width="264" height="83" viewBox="0 0 264 83" fill="none" xmlns="http://www.w3.org/2000/svg">
<path d="M40.96 25.04C40.96 22.9867 40.7667 21.3267 40.38 20.06C40.0067 18.7933 39.4933 17.8267 38.84 17.16C38.1867 16.48 37.4467 16.02 36.62 15.78C35.7933 15.54 34.9333 15.42 34.04 15.42H32V34.94H34.06C34.9933 34.94 35.8733 34.7933 36.7 34.5C37.54 34.2067 38.28 33.7 38.92 32.98C39.56 32.2467 40.06 31.24 40.42 29.96C40.78 28.6667 40.96 27.0267 40.96 25.04ZM46.68 25.04C46.68 27.3067 46.4333 29.2467 45.94 30.86C45.46 32.4733 44.7933 33.8133 43.94 34.88C43.0867 35.9333 42.1 36.76 40.98 37.36C39.8733 37.96 38.6867 38.3867 37.42 38.64C36.1667 38.88 34.8933 39 33.6 39H26.52V11.34H33.12C34.84 11.34 36.5067 11.5267 38.12 11.9C39.7333 12.26 41.18 12.9267 42.46 13.9C43.7533 14.8733 44.78 16.26 45.54 18.06C46.3 19.8467 46.68 22.1733 46.68 25.04ZM57.6444 15.38V22.96H67.4444V26.94H57.6444V34.98H69.5444V39H52.1644V11.34H69.4044L68.8444 15.38H57.6444ZM84.0688 34.3L90.0688 11.34H95.6688L87.2288 39H80.7088L72.3088 11.34H78.1288L84.0688 34.3ZM105.613 15.38V22.96H115.413V26.94H105.613V34.98H117.513V39H100.133V11.34H117.373L116.813 15.38H105.613ZM124.258 39V11.34H129.738V34.56H141.938L141.358 39H124.258ZM166.682 25.16C166.682 28.04 166.275 30.5667 165.462 32.74C164.662 34.9 163.462 36.5867 161.862 37.8C160.262 39 158.282 39.6 155.922 39.6C153.575 39.6 151.595 39.0133 149.982 37.84C148.382 36.6533 147.175 34.9867 146.362 32.84C145.562 30.68 145.162 28.1267 145.162 25.18C145.162 22.3 145.562 19.78 146.362 17.62C147.175 15.4467 148.382 13.76 149.982 12.56C151.595 11.3467 153.575 10.74 155.922 10.74C158.282 10.74 160.262 11.3267 161.862 12.5C163.462 13.6733 164.662 15.34 165.462 17.5C166.275 19.66 166.682 22.2133 166.682 25.16ZM161.042 25.16C161.042 21.6667 160.642 19.08 159.842 17.4C159.055 15.7067 157.749 14.86 155.922 14.86C154.095 14.86 152.782 15.7067 151.982 17.4C151.195 19.0933 150.802 21.6867 150.802 25.18C150.802 28.6867 151.209 31.28 152.022 32.96C152.835 34.6267 154.135 35.46 155.922 35.46C157.775 35.46 159.089 34.6133 159.862 32.92C160.649 31.2267 161.042 28.64 161.042 25.16ZM185.006 20.2C185.006 19.0533 184.786 18.1267 184.346 17.42C183.92 16.7 183.293 16.1733 182.466 15.84C181.64 15.5067 180.646 15.34 179.486 15.34H176.626V25.36H179.646C180.74 25.36 181.68 25.1933 182.466 24.86C183.266 24.5133 183.886 23.96 184.326 23.2C184.78 22.44 185.006 21.44 185.006 20.2ZM190.686 20.16C190.686 22.3067 190.226 24.0667 189.306 25.44C188.4 26.8 187.126 27.8067 185.486 28.46C183.846 29.1 181.953 29.42 179.806 29.42H176.626V39H171.146V11.34H179.286C182.873 11.34 185.666 12.0667 187.666 13.52C189.68 14.9733 190.686 17.1867 190.686 20.16ZM201.551 15.38V22.96H211.351V26.94H201.551V34.98H213.451V39H196.071V11.34H213.311L212.751 15.38H201.551ZM237.995 19.52C237.995 20.8533 237.728 22.02 237.195 23.02C236.675 24.02 235.962 24.86 235.055 25.54C234.162 26.22 233.155 26.7467 232.035 27.12L239.615 39H233.335L226.795 27.98H224.275V39H218.815V11.34H226.955C230.595 11.34 233.342 12.0133 235.195 13.36C237.062 14.7067 237.995 16.76 237.995 19.52ZM232.315 19.52C232.315 18.0267 231.882 16.9533 231.015 16.3C230.148 15.6333 228.842 15.3 227.095 15.3H224.275V24.1H227.275C228.888 24.1 230.128 23.74 230.995 23.02C231.875 22.3 232.315 21.1333 232.315 19.52Z" fill="white"/>
<path d="M18.72 14.96L20.78 18.2L7.1 26.46L20.78 34.72L18.58 37.94L3.24 28.38V24.54L18.72 14.96Z" fill="#0000CD"/>
<path d="M245.32 14.96L260.78 24.52V28.38L245.44 37.94L243.24 34.78L256.94 26.46L243.24 18.26L245.32 14.96Z" fill="#0000CD"/>
<path d="M74.816 57.88C75.664 57.88 76.416 57.948 77.072 58.084C77.728 58.22 78.324 58.404 78.86 58.636L77.948 60.772C77.524 60.596 77.08 60.468 76.616 60.388C76.152 60.308 75.688 60.268 75.224 60.268C74.424 60.268 73.84 60.42 73.472 60.724C73.112 61.02 72.932 61.496 72.932 62.152V64.156H77.132L76.784 66.424H72.932V76H69.776V66.424H66.98V64.156H69.776V62.08C69.776 61.256 69.976 60.532 70.376 59.908C70.776 59.276 71.352 58.78 72.104 58.42C72.864 58.06 73.768 57.88 74.816 57.88ZM81.4426 76V73.804H83.2306V65.476H81.4426V63.292H85.6426L86.2306 66.208C86.6946 65.128 87.2786 64.316 87.9826 63.772C88.6866 63.22 89.5706 62.944 90.6346 62.944C91.0426 62.944 91.4026 62.976 91.7146 63.04C92.0346 63.104 92.3386 63.188 92.6266 63.292L91.6786 65.956C91.4306 65.892 91.1946 65.844 90.9706 65.812C90.7466 65.772 90.4946 65.752 90.2146 65.752C89.3346 65.752 88.5666 66.096 87.9106 66.784C87.2626 67.464 86.7586 68.388 86.3986 69.556V73.804H88.9306V76H81.4426ZM89.9506 68.248V64.876L90.3826 63.292H92.6266L92.0626 68.248H89.9506ZM100.993 62.932C102.257 62.932 103.329 63.208 104.209 63.76C105.089 64.312 105.757 65.092 106.213 66.1C106.677 67.1 106.909 68.272 106.909 69.616C106.909 70.992 106.677 72.184 106.213 73.192C105.749 74.2 105.077 74.98 104.197 75.532C103.317 76.084 102.245 76.36 100.981 76.36C99.7253 76.36 98.6533 76.092 97.7653 75.556C96.8853 75.012 96.2133 74.24 95.7493 73.24C95.2853 72.232 95.0533 71.032 95.0533 69.64C95.0533 68.312 95.2853 67.144 95.7493 66.136C96.2133 65.128 96.8893 64.344 97.7773 63.784C98.6653 63.216 99.7373 62.932 100.993 62.932ZM100.993 65.32C100.105 65.32 99.4413 65.668 99.0013 66.364C98.5693 67.06 98.3533 68.152 98.3533 69.64C98.3533 71.144 98.5693 72.244 99.0013 72.94C99.4333 73.628 100.093 73.972 100.981 73.972C101.869 73.972 102.529 73.628 102.961 72.94C103.393 72.244 103.609 71.136 103.609 69.616C103.609 68.136 103.393 67.052 102.961 66.364C102.529 65.668 101.873 65.32 100.993 65.32ZM110.104 76V63.292H112.864L113.092 64.864C113.636 64.224 114.248 63.744 114.928 63.424C115.608 63.096 116.34 62.932 117.124 62.932C118.268 62.932 119.14 63.264 119.74 63.928C120.34 64.584 120.64 65.508 120.64 66.7V76H117.472V67.936C117.472 67.296 117.432 66.784 117.352 66.4C117.272 66.008 117.12 65.728 116.896 65.56C116.672 65.384 116.348 65.296 115.924 65.296C115.58 65.296 115.248 65.372 114.928 65.524C114.616 65.676 114.32 65.88 114.04 66.136C113.768 66.392 113.512 66.676 113.272 66.988V76H110.104ZM135.463 75.292C134.991 75.604 134.419 75.86 133.747 76.06C133.075 76.26 132.347 76.36 131.563 76.36C130.011 76.36 128.843 75.96 128.059 75.16C127.275 74.352 126.883 73.28 126.883 71.944V65.536H124.123V63.292H126.883V60.496L130.051 60.112V63.292H134.251L133.927 65.536H130.051V71.932C130.051 72.588 130.211 73.068 130.531 73.372C130.851 73.676 131.367 73.828 132.079 73.828C132.535 73.828 132.951 73.776 133.327 73.672C133.711 73.56 134.059 73.42 134.371 73.252L135.463 75.292ZM139.089 70.708V68.188H149.217V70.708H139.089ZM155.976 70.612C156.04 71.404 156.22 72.048 156.516 72.544C156.82 73.04 157.208 73.404 157.68 73.636C158.152 73.868 158.676 73.984 159.252 73.984C159.86 73.984 160.432 73.888 160.968 73.696C161.504 73.504 162.032 73.236 162.552 72.892L163.872 74.704C163.28 75.2 162.572 75.6 161.748 75.904C160.932 76.208 160.032 76.36 159.048 76.36C157.672 76.36 156.512 76.076 155.568 75.508C154.632 74.94 153.924 74.152 153.444 73.144C152.964 72.136 152.724 70.976 152.724 69.664C152.724 68.4 152.96 67.26 153.432 66.244C153.904 65.228 154.584 64.424 155.472 63.832C156.36 63.232 157.432 62.932 158.688 62.932C159.856 62.932 160.864 63.188 161.712 63.7C162.56 64.212 163.216 64.948 163.68 65.908C164.144 66.86 164.376 68.008 164.376 69.352C164.376 69.568 164.368 69.788 164.352 70.012C164.344 70.236 164.332 70.436 164.316 70.612H155.976ZM158.7 65.164C157.932 65.164 157.3 65.44 156.804 65.992C156.316 66.536 156.028 67.4 155.94 68.584H161.292C161.276 67.512 161.052 66.676 160.62 66.076C160.196 65.468 159.556 65.164 158.7 65.164ZM167.666 76V63.292H170.426L170.654 64.864C171.198 64.224 171.81 63.744 172.49 63.424C173.17 63.096 173.902 62.932 174.686 62.932C175.83 62.932 176.702 63.264 177.302 63.928C177.902 64.584 178.202 65.508 178.202 66.7V76H175.034V67.936C175.034 67.296 174.994 66.784 174.914 66.4C174.834 66.008 174.682 65.728 174.458 65.56C174.234 65.384 173.91 65.296 173.486 65.296C173.142 65.296 172.81 65.372 172.49 65.524C172.178 65.676 171.882 65.88 171.602 66.136C171.33 66.392 171.074 66.676 170.834 66.988V76H167.666ZM189.425 57.88L192.593 58.216V76H189.785L189.593 74.5C189.201 75.06 188.709 75.512 188.117 75.856C187.525 76.192 186.837 76.36 186.053 76.36C184.981 76.36 184.093 76.08 183.389 75.52C182.693 74.96 182.173 74.176 181.829 73.168C181.493 72.152 181.325 70.972 181.325 69.628C181.325 68.332 181.525 67.18 181.925 66.172C182.325 65.164 182.901 64.372 183.653 63.796C184.413 63.22 185.313 62.932 186.353 62.932C186.977 62.932 187.545 63.04 188.057 63.256C188.569 63.472 189.025 63.792 189.425 64.216V57.88ZM187.205 65.296C186.405 65.296 185.773 65.644 185.309 66.34C184.853 67.028 184.625 68.128 184.625 69.64C184.625 70.704 184.721 71.556 184.913 72.196C185.105 72.828 185.377 73.284 185.729 73.564C186.081 73.844 186.497 73.984 186.977 73.984C187.505 73.984 187.969 73.828 188.369 73.516C188.777 73.196 189.129 72.8 189.425 72.328V66.544C189.129 66.152 188.797 65.848 188.429 65.632C188.069 65.408 187.661 65.296 187.205 65.296Z" fill="white"/>
<path d="M52.232 61.576L53.468 63.52L45.26 68.476L53.468 73.432L52.148 75.364L42.944 69.628V67.324L52.232 61.576Z" fill="#0000CD"/>
<path d="M56.18 78.556L54.044 77.596L64.244 56.512L66.356 57.508L56.18 78.556Z" fill="#0000CD"/>
<path d="M198.192 61.576L207.468 67.312V69.628L198.264 75.364L196.944 73.468L205.164 68.476L196.944 63.556L198.192 61.576Z" fill="#0000CD"/>
</svg>
